<?xml version="1.0" encoding="UTF-8"?>
<svg version="1.1" xmlns="http://www.w3.org/2000/svg" width="360" height="360">
<path d="M0 0 C118.8 0 237.6 0 360 0 C360 118.8 360 237.6 360 360 C241.2 360 122.4 360 0 360 C0 241.2 0 122.4 0 0 Z " fill="#FDFDFD" transform="translate(0,0)"/>
<path d="M0 0 C2.43158841 0.04979446 4.86115834 0.06150948 7.29321289 0.06713867 C8.84206259 0.08121249 10.39089476 0.0974125 11.93969727 0.1159668 C12.66469925 0.1213295 13.38970123 0.1266922 14.13667297 0.13221741 C17.82177763 0.21954086 19.46167437 0.38973279 22.60766602 2.48706055 C22.92016602 5.98706055 22.92016602 5.98706055 22.60766602 9.48706055 C19.78658003 12.30814653 17.07448005 11.78414663 13.29907227 11.7956543 C11.81534435 11.82081239 10.33162048 11.84621045 8.84790039 11.87182617 C6.50635813 11.90058842 4.16488621 11.92460284 1.82324219 11.94335938 C-0.435185 11.96499501 -2.69278571 12.00442972 -4.95092773 12.0456543 C-6.00104286 12.04582802 -6.00104286 12.04582802 -7.07237244 12.04600525 C-10.7900315 12.0971392 -10.7900315 12.0971392 -14.07670593 13.64955139 C-15.93279058 16.24190455 -15.77330819 18.11571234 -15.78051758 21.2878418 C-15.78997406 22.47917725 -15.79943054 23.6705127 -15.80917358 24.89794922 C-15.80310089 26.18548096 -15.7970282 27.4730127 -15.79077148 28.79956055 C-15.79279254 30.1333024 -15.79570424 31.46704318 -15.79946899 32.80078125 C-15.80389094 35.5950778 -15.79746588 38.38908653 -15.78344727 41.18334961 C-15.76635493 44.7648052 -15.77619688 48.34558637 -15.79416466 51.92701721 C-15.80500629 54.68083781 -15.80155453 57.43449856 -15.79378128 60.18832397 C-15.79080727 62.15094439 -15.7999169 64.11357103 -15.80917358 66.07617188 C-15.7997171 67.26750732 -15.79026062 68.45884277 -15.78051758 69.6862793 C-15.7781308 70.7364624 -15.77574402 71.78664551 -15.77328491 72.86865234 C-15.59702563 75.45566759 -15.59702563 75.45566759 -14.24572182 77.12690163 C-11.59044522 79.07554836 -9.6322739 78.86464229 -6.35717773 78.86801147 C-4.4643103 78.88070068 -4.4643103 78.88070068 -2.53320312 78.89364624 C-1.13207879 78.88781314 0.26904427 78.88166862 1.67016602 78.87524414 C3.14355865 78.87930857 4.61694824 78.88464972 6.09033203 78.89117432 C10.09443614 78.90486922 14.09830876 78.89954039 18.10241699 78.89003706 C22.28906894 78.88245168 26.47570081 78.88948295 30.66235352 78.89419556 C37.69363979 78.89965639 44.72483158 78.89245293 51.75610352 78.87817383 C59.88990856 78.86184665 68.02348802 78.86713493 76.1572876 78.88365304 C83.13570082 78.89725861 90.11404606 78.89919214 97.09246826 78.89133704 C101.26261087 78.88665538 105.43264738 78.88604912 109.6027832 78.8959465 C113.5229653 78.90460042 117.44285603 78.89862337 121.36300659 78.88126373 C122.80337032 78.87729042 124.24375848 78.87844736 125.68411255 78.88505173 C127.64690283 78.89322313 129.60974658 78.88116924 131.57250977 78.86801147 C132.67199951 78.8668804 133.77148926 78.86574932 134.90429688 78.86458397 C137.62037296 78.70322843 137.62037296 78.70322843 139.46105385 77.12690163 C141.18102373 74.66706617 140.98908516 72.66263861 140.99584961 69.6862793 C141.01003433 67.89927612 141.01003433 67.89927612 141.02450562 66.07617188 C141.01843292 64.78864014 141.01236023 63.5011084 141.00610352 62.17456055 C141.00812457 60.84081869 141.01103627 59.50707792 141.01480103 58.17333984 C141.01922297 55.37904329 141.01279791 52.58503457 140.9987793 49.79077148 C140.98168696 46.2093159 140.99152891 42.62853473 141.00949669 39.04710388 C141.02033833 36.29328329 141.01688656 33.53962254 141.00911331 30.78579712 C141.0061393 28.8231767 141.01524893 26.86055006 141.02450562 24.89794922 C141.01504913 23.70661377 141.00559265 22.51527832 140.99584961 21.2878418 C140.99226944 19.71256714 140.99226944 19.71256714 140.98861694 18.10546875 C140.54243921 15.03873403 140.00173765 14.36396255 137.60766602 12.48706055 C135.64946366 12.0400874 135.64946366 12.0400874 133.47070312 12.10852051 C132.62949921 12.10031784 131.78829529 12.09211517 130.92160034 12.08366394 C130.00202545 12.08981216 129.08245056 12.09596039 128.13500977 12.10229492 C127.16403351 12.09692215 126.19305725 12.09154938 125.19265747 12.08601379 C123.08265169 12.07622338 120.9726056 12.07329544 118.86257935 12.07637024 C115.52602819 12.08083616 112.19001081 12.06688307 108.85351562 12.04797363 C101.77157453 12.01113925 94.68968883 11.99747001 87.60766602 11.98706055 C79.40287977 11.9750008 71.19835251 11.95355831 62.99368286 11.90705872 C59.70141575 11.89343982 56.40947197 11.8976682 53.1171875 11.90246582 C51.10489483 11.8931288 49.09260579 11.88296088 47.08032227 11.87182617 C46.16074738 11.8779744 45.24117249 11.88412262 44.29373169 11.89045715 C43.45252777 11.88225449 42.61132385 11.87405182 41.74462891 11.86560059 C40.64847008 11.86453182 40.64847008 11.86453182 39.53016663 11.86344147 C37.03863915 11.37565832 36.14596083 10.4725548 34.60766602 8.48706055 C34.23266602 5.98706055 34.23266602 5.98706055 34.60766602 3.48706055 C36.15591808 1.48197802 37.05106611 0.59611267 39.56305218 0.1039505 C40.30945367 0.10022179 41.05585516 0.09649307 41.82487488 0.09265137 C42.68409546 0.08130157 43.54331604 0.06995178 44.42857361 0.05825806 C45.83823143 0.06265396 45.83823143 0.06265396 47.27636719 0.06713867 C48.26857269 0.05866913 49.2607782 0.05019958 50.28305054 0.04147339 C53.57237477 0.0180223 56.86123315 0.0170835 60.15063477 0.01831055 C62.4364694 0.01121161 64.72230225 0.003513 67.00813293 -0.00476074 C71.80576524 -0.01822584 76.60323297 -0.01976619 81.40087891 -0.01391602 C87.5400532 -0.00803169 93.67843346 -0.03855029 99.81745434 -0.0790329 C104.54191826 -0.10492931 109.26619183 -0.10778525 113.99071693 -0.10414124 C116.25327861 -0.10583204 118.51584912 -0.11547065 120.77834129 -0.13328552 C123.95009144 -0.15550229 127.12024594 -0.14575688 130.29199219 -0.12817383 C131.22164291 -0.14143707 132.15129364 -0.15470032 133.1091156 -0.16836548 C139.45563101 -0.08690982 143.69931119 1.40528518 148.60766602 5.48706055 C154.04674595 11.85393599 153.20938443 19.30696253 153.17407227 27.3269043 C153.17931507 28.77747494 153.18559394 30.22804218 153.19285583 31.67860413 C153.20323142 34.71054184 153.19874052 37.74200941 153.18408203 40.77392578 C153.16690294 44.64206818 153.19039113 48.50872381 153.22557163 52.3767004 C153.24762873 55.3700986 153.24608427 58.3631456 153.23780632 61.35659981 C153.23699123 62.7818318 153.24376951 64.20709072 153.25857735 65.63224602 C153.38962064 80.52588625 153.38962064 80.52588625 147.60766602 86.48706055 C140.28929021 91.386659 133.17332995 91.06264578 124.59790039 91.02050781 C123.08261783 91.02757405 121.56734232 91.03632203 120.05207825 91.0466156 C115.95492149 91.06903883 111.85815232 91.06618683 107.76095772 91.05729413 C104.33401627 91.05216976 100.90714673 91.05948841 97.48021269 91.0667662 C89.39356367 91.08374226 81.30710347 91.08022198 73.22045898 91.06347656 C64.89055959 91.04655003 56.56118405 91.06240206 48.23134184 91.09469944 C41.06589502 91.12142483 33.90061098 91.12866363 26.73511934 91.12018436 C22.46141203 91.11526462 18.18801993 91.11741912 13.91435242 91.13797188 C9.89543907 91.1563761 5.87727751 91.15031331 1.85840416 91.12577248 C0.38788411 91.12077986 -1.08269371 91.12421408 -2.55316734 91.13692093 C-10.64286038 91.2012706 -17.21807916 91.19663095 -23.39233398 85.48706055 C-28.84739546 79.11202434 -27.97621325 71.64329871 -27.92358398 63.61206055 C-27.92628272 62.15909567 -27.93016831 60.70613256 -27.93518066 59.25317383 C-27.94105792 56.21702781 -27.93257091 53.18135447 -27.91381836 50.14526367 C-27.89102899 46.26822276 -27.90416175 42.39228965 -27.92810822 38.51528931 C-27.94261482 35.51765714 -27.93793819 32.52028435 -27.92759705 29.52264404 C-27.92494313 28.09380968 -27.92815219 26.66495117 -27.93751526 25.23614502 C-27.98328485 16.29006674 -27.80474116 10.62076078 -21.87792969 3.72509766 C-15.37620732 -0.87649757 -7.62046856 -0.15929398 0 0 Z " fill="#030303" transform="translate(117.392333984375,134.512939453125)"/>
<path d="M0 0 C4.50334071 3.23992499 7.52260466 7.39203273 9.26953125 12.6328125 C9.91691801 20.48635683 9.88624059 26.14056499 5.26953125 32.6328125 C5.26953125 33.2928125 5.26953125 33.9528125 5.26953125 34.6328125 C6.56659732 35.52154296 7.9100549 36.34284651 9.26953125 37.1328125 C17.72695871 42.588787 23.11743806 50.39395359 25.95703125 59.9453125 C26.26080662 62.55778071 26.46795285 65.13020658 26.58203125 67.7578125 C26.63810547 69.03011719 26.63810547 69.03011719 26.6953125 70.328125 C26.26953125 72.6328125 26.26953125 72.6328125 24.67567444 74.25259399 C21.43851597 76.10950178 19.07022257 76.01384605 15.34545898 76.02099609 C14.65719025 76.02625305 13.96892151 76.03151001 13.25979614 76.03692627 C10.99067317 76.0501024 8.72225478 76.04139818 6.453125 76.03125 C4.87418992 76.0332712 3.29525574 76.03618303 1.71632385 76.03994751 C-1.58984277 76.04436741 -4.89576599 76.03794986 -8.2019043 76.02392578 C-12.44132349 76.00681985 -16.68017349 76.01668575 -20.91957188 76.03464317 C-24.17864785 76.0454782 -27.43758861 76.04203626 -30.69666862 76.0342598 C-32.25998947 76.03225773 -33.82332257 76.03471732 -35.3866291 76.04169846 C-37.57001454 76.04931013 -39.75247459 76.03771471 -41.93579102 76.02099609 C-43.17837173 76.01860931 -44.42095245 76.01622253 -45.70118713 76.01376343 C-48.73046875 75.6328125 -48.73046875 75.6328125 -50.63023376 74.27114868 C-53.52310169 69.96344146 -52.16885021 62.97815331 -51.26171875 58.125 C-48.49414719 48.66913051 -41.569208 41.34796603 -33.73046875 35.6328125 C-31.45703125 34.91015625 -31.45703125 34.91015625 -29.73046875 34.6328125 C-30.34921875 33.7665625 -30.96796875 32.9003125 -31.60546875 32.0078125 C-35.0249609 26.57685438 -36.3731243 22.05936802 -35.73046875 15.6328125 C-33.77240577 7.94927423 -30.31586614 3.04451427 -23.73046875 -1.3671875 C-15.85167109 -5.30658633 -7.50320481 -4.1356247 0 0 Z " fill="#090909" transform="translate(91.73046875,245.3671875)"/>
<path d="M0 0 C5.72013479 2.60410806 9.93111646 7.08477791 12.6484375 12.71484375 C14.79554076 19.30254693 14.31442863 26.31155755 11.5078125 32.6015625 C10.86354486 33.86325329 10.20530399 35.11849719 9.5078125 36.3515625 C9.9925 36.68027344 10.4771875 37.00898437 10.9765625 37.34765625 C20.52089418 44.12046085 27.35819328 51.87586654 30.5078125 63.3515625 C31.71289358 72.56348041 31.71289358 72.56348041 29.41664124 75.97062683 C26.50969543 78.0736469 24.05140103 77.72561876 20.49780273 77.72387695 C19.78856659 77.72752762 19.07933044 77.73117828 18.34860229 77.73493958 C16.00429339 77.74304573 13.66067549 77.72943641 11.31640625 77.71484375 C9.68880717 77.71432521 8.06120747 77.71484269 6.43360901 77.71635437 C3.02310839 77.71626465 -0.38715584 77.70583431 -3.79760742 77.68774414 C-8.17494135 77.66503886 -12.55193035 77.66451607 -16.92930698 77.67126179 C-20.28955669 77.6745986 -23.64972735 77.66797745 -27.00996208 77.65813255 C-28.62434412 77.65427663 -30.23873494 77.65313396 -31.8531208 77.6547184 C-34.10610933 77.65508813 -36.35865073 77.64249603 -38.61157227 77.6262207 C-39.89491959 77.62161331 -41.17826691 77.61700592 -42.50050354 77.61225891 C-45.4921875 77.3515625 -45.4921875 77.3515625 -47.4921875 75.3515625 C-49.09623685 64.15406418 -46.26254976 56.03451756 -39.81640625 47.00390625 C-36.02403906 42.33973051 -31.76180344 39.19852384 -26.4921875 36.3515625 C-26.853125 35.66191406 -27.2140625 34.97226563 -27.5859375 34.26171875 C-31.14460544 27.05541617 -33.23111082 21.60023932 -30.640625 13.78125 C-24.97258996 0.86429941 -13.54259176 -3.52362105 0 0 Z " fill="#060606" transform="translate(87.4921875,40.6484375)"/>
<path d="M0 0 C1.19367188 -0.01675781 2.38734375 -0.03351562 3.6171875 -0.05078125 C9.37604835 0.54562639 14.06158996 3.24908996 18.125 7.3125 C21.53619218 12.50425953 23.97157179 17.6287647 23.6328125 23.9296875 C22.61391107 28.71068651 20.37925271 33.00526715 18.125 37.3125 C18.69347656 37.6528125 19.26195312 37.993125 19.84765625 38.34375 C29.19205017 44.20934618 36.04435416 51.48231841 39.125 62.3125 C39.64115054 67.02667492 39.8912173 71.61941906 39.125 76.3125 C35.44271681 78.76735546 33.61654767 78.57113399 29.22265625 78.5871582 C28.17584183 78.5948246 28.17584183 78.5948246 27.10787964 78.60264587 C24.80099921 78.61654637 22.49441733 78.61558501 20.1875 78.61328125 C18.58471566 78.61716754 16.98193236 78.62150207 15.37915039 78.62626648 C12.01998556 78.63372937 8.66092584 78.63343665 5.30175781 78.62817383 C0.99395858 78.62237475 -3.31341131 78.63932014 -7.62113953 78.6625185 C-10.93081178 78.67723823 -14.24038016 78.67813004 -17.55007935 78.67500877 C-19.13852795 78.67552273 -20.72698225 78.68077447 -22.31539917 78.69082069 C-24.5347703 78.70313605 -26.75329895 78.69642415 -28.97265625 78.68481445 C-30.23601807 78.68544388 -31.49937988 78.6860733 -32.80102539 78.6867218 C-35.875 78.3125 -35.875 78.3125 -37.77709961 76.93156433 C-40.28119094 73.23880222 -39.42264767 68.53417232 -38.875 64.3125 C-35.7191797 52.45149424 -28.07533357 43.82335121 -17.875 37.3125 C-18.308125 36.54679687 -18.308125 36.54679687 -18.75 35.765625 C-22.34281123 28.72970301 -23.39672257 21.68805249 -21.21484375 13.98046875 C-18.66584885 8.20936775 -14.31500219 4.51320009 -9.0859375 1.16796875 C-6.00694708 -0.02337207 -3.29296105 0.01062246 0 0 Z " fill="#060606" transform="translate(280.875,39.6875)"/>
<path d="M0 0 C6.05308783 3.58654892 10.01445277 8.80294846 12.15234375 15.47265625 C13.8173597 22.39416882 11.83704871 27.38853236 8.625 33.4375 C7.965 34.4275 7.305 35.4175 6.625 36.4375 C7.285 36.623125 7.945 36.80875 8.625 37 C17.61434687 41.30739537 23.80836592 49.42450965 27.625 58.4375 C28.69888122 61.79250145 28.8227619 64.98698798 28.875 68.5 C28.90078125 69.54285156 28.9265625 70.58570313 28.953125 71.66015625 C28.625 74.4375 28.625 74.4375 27.40293884 76.08583069 C25.09402053 77.84117455 23.73411696 77.82325679 20.84985352 77.84155273 C19.88197403 77.85423691 18.91409454 77.86692108 17.91688538 77.87998962 C16.87310226 77.87705399 15.82931915 77.87411835 14.75390625 77.87109375 C13.14309425 77.87895653 13.14309425 77.87895653 11.4997406 77.88697815 C9.22761907 77.89340447 6.9554643 77.89205351 4.68334961 77.88354492 C1.204313 77.8750411 -2.27307908 77.90377971 -5.75195312 77.93554688 C-7.95833284 77.93715907 -10.16471547 77.936581 -12.37109375 77.93359375 C-13.41285263 77.94482773 -14.45461151 77.95606171 -15.52793884 77.96763611 C-22.71213177 77.898231 -22.71213177 77.898231 -26.06665039 75.56665039 C-27.375 73.4375 -27.375 73.4375 -27.3125 70.875 C-26.30795336 68.26317873 -25.52922125 67.18022049 -23.375 65.4375 C-21.49568176 65.07673645 -21.49568176 65.07673645 -19.36254883 65.09692383 C-18.56194534 65.09715042 -17.76134186 65.09737701 -16.93647766 65.09761047 C-16.07701035 65.11309433 -15.21754303 65.12857819 -14.33203125 65.14453125 C-13.00663582 65.15089851 -13.00663582 65.15089851 -11.65446472 65.15739441 C-8.83183339 65.17418957 -6.00991559 65.21184303 -3.1875 65.25 C-1.27409885 65.26504577 0.63931349 65.27873436 2.55273438 65.29101562 C7.24376459 65.32409581 11.93426131 65.3758837 16.625 65.4375 C14.14817444 57.65010086 10.40935319 52.04650948 3.625 47.4375 C0.98024937 46.20081275 -1.58055394 45.31995665 -4.375 44.4375 C-4.313125 45.345 -4.25125 46.2525 -4.1875 47.1875 C-4.39172076 50.72732642 -5.02051835 51.88681155 -7.375 54.4375 C-9.7181213 54.18188677 -12.05343403 53.84479228 -14.375 53.4375 C-15.8533226 50.48085481 -15.43532783 47.69520263 -15.375 44.4375 C-22.4173127 46.14917323 -27.68120102 48.8110903 -32.375 54.4375 C-35.99487906 60.43694422 -37.91217692 66.51964115 -38.8203125 73.44140625 C-39.375 75.4375 -39.375 75.4375 -42.375 77.4375 C-44.9375 77.25 -44.9375 77.25 -47.375 76.4375 C-50.47717907 71.7842314 -49.88721455 67.37109243 -48.9453125 61.9765625 C-46.49586266 52.39044399 -40.57706195 44.00944708 -32.375 38.4375 C-29.4375 37.0625 -29.4375 37.0625 -27.375 36.4375 C-27.7359375 35.93863281 -28.096875 35.43976563 -28.46875 34.92578125 C-32.80534159 28.21611038 -33.33115734 22.30501206 -32.375 14.4375 C-31.125 10.9375 -31.125 10.9375 -29.375 8.4375 C-28.83875 7.591875 -28.3025 6.74625 -27.75 5.875 C-20.2514099 -1.82092142 -10.10269028 -4.44286571 0 0 Z " fill="#090909" transform="translate(291.375,243.5625)"/>
<path d="M0 0 C0.99 0.99 0.99 0.99 2 2 C1.625 5.625 1.625 5.625 1 9 C-4.82118932 10.31996395 -7.70242252 9.64004645 -12.9375 6.875 C-20.14337668 3.25352011 -27.36180504 0.65669149 -35.13134766 -1.47998047 C-36.80867669 -1.94675743 -38.4737671 -2.45699627 -40.13671875 -2.97265625 C-66.67479417 -10.1316101 -97.22646074 -4.66160925 -120.78125 8.7421875 C-124.64183591 10.25081452 -127.00592505 9.89765826 -131 9 C-131.8125 5.75 -131.8125 5.75 -132 2 C-100.05383923 -28.64465051 -34.4825771 -21.85434234 0 0 Z " fill="#070707" transform="translate(245,68)"/>
<path d="M0 0 C4.13729414 0.54720701 5.11780438 1.91347675 7.72265625 5.10546875 C8.86734375 6.46865234 8.86734375 6.46865234 10.03515625 7.859375 C11.08703125 9.12587891 11.08703125 9.12587891 12.16015625 10.41796875 C13.7883697 12.13286949 15.4607407 13.77337305 17.16015625 15.41796875 C17.40636719 14.86496094 17.65257812 14.31195313 17.90625 13.7421875 C19.40537411 10.9634372 21.23031674 8.67840676 23.22265625 6.23046875 C23.93550781 5.35003906 24.64835937 4.46960938 25.3828125 3.5625 C26.27520058 2.48575043 27.17128161 1.40684339 28.16015625 0.41796875 C33.39933523 -0.03761203 33.39933523 -0.03761203 35.83056641 1.41821289 C37.94043239 4.59153501 37.587237 7.97889245 37.55859375 11.6640625 C37.56146393 12.47158463 37.56433411 13.27910675 37.56729126 14.11109924 C37.56933189 15.8182953 37.56380203 17.52551474 37.55126953 19.23266602 C37.53523596 21.84249368 37.55110665 24.45076786 37.5703125 27.06054688 C37.56832966 28.7200555 37.56448513 30.37956315 37.55859375 32.0390625 C37.56770279 33.20797279 37.56770279 33.20797279 37.57699585 34.40049744 C37.53499777 37.64604549 37.36941549 40.02737442 35.82275391 42.91430664 C34.16015625 44.41796875 34.16015625 44.41796875 31.16015625 44.85546875 C27.82981819 44.36979445 27.16859006 43.99242568 25.16015625 41.41796875 C24.7277832 39.5168457 24.7277832 39.5168457 24.6484375 37.40625 C24.59526367 36.27026367 24.59526367 36.27026367 24.54101562 35.11132812 C24.51845703 34.32564453 24.49589844 33.53996094 24.47265625 32.73046875 C24.43849609 31.93318359 24.40433594 31.13589844 24.36914062 30.31445312 C24.28677521 28.34944971 24.22178558 26.38373179 24.16015625 24.41796875 C23.39703125 25.39378906 22.63390625 26.36960938 21.84765625 27.375 C19.85974974 29.91696829 19.46579375 30.34792682 16.16015625 31.10546875 C12.25006928 30.20940715 10.72717336 28.42504593 8.16015625 25.41796875 C7.83015625 25.08796875 7.50015625 24.75796875 7.16015625 24.41796875 C7.12277344 25.5265625 7.08539063 26.63515625 7.046875 27.77734375 C6.98120177 29.24091849 6.9147549 30.70445866 6.84765625 32.16796875 C6.81381836 33.26238281 6.81381836 33.26238281 6.77929688 34.37890625 C6.56981945 38.56845474 6.34213924 41.50743455 3.16015625 44.41796875 C0.09765625 44.79296875 0.09765625 44.79296875 -2.83984375 44.41796875 C-5.5005458 41.7572667 -5.0890092 39.76317197 -5.11773682 36.14404297 C-5.11368835 35.28568848 -5.10963989 34.42733398 -5.10546875 33.54296875 C-5.1073822 32.6627002 -5.10929565 31.78243164 -5.11126709 30.87548828 C-5.11262927 29.01269241 -5.10893057 27.14988706 -5.10058594 25.28710938 C-5.08988682 22.42947139 -5.10048007 19.57246209 -5.11328125 16.71484375 C-5.11195966 14.90755069 -5.10939728 13.10025802 -5.10546875 11.29296875 C-5.10951721 10.43461426 -5.11356567 9.57625977 -5.11773682 8.69189453 C-5.05464825 0.7439441 -5.05464825 0.7439441 0 0 Z " fill="#080808" transform="translate(207.83984375,157.58203125)"/>
<path d="M0 0 C3.88844564 1.11211569 7.7074968 2.43102097 11.53320312 3.74023438 C22.50703784 7.36222896 33.23205279 8.36791661 44.75 8.3125 C45.98210205 8.30686035 47.2142041 8.3012207 48.48364258 8.29541016 C61.90779392 8.11685754 73.77687433 5.92834027 86.24487305 0.89404297 C90.57178242 -0.79263826 93.51631362 -1.35708015 98 0 C100 2 100 2 100.3125 4.4375 C99.93688019 7.51758241 99.33737708 8.05748334 97 10 C95.0456543 10.93554688 95.0456543 10.93554688 92.82421875 11.71875 C91.99470703 12.01136719 91.16519531 12.30398438 90.31054688 12.60546875 C89.44494141 12.90066406 88.57933594 13.19585937 87.6875 13.5 C86.86443359 13.79519531 86.04136719 14.09039062 85.19335938 14.39453125 C73.24301259 18.53926574 61.68334554 20.49224108 49.04101562 20.33618164 C47.00089929 20.31251043 44.9620952 20.31566376 42.921875 20.32226562 C30.40431011 20.29779225 18.46421427 18.84000284 6.5 15.125 C5.23929688 14.75955078 5.23929688 14.75955078 3.953125 14.38671875 C-1.30972418 12.78965917 -6.02858438 10.97141562 -10 7 C-10.29044498 4.2407727 -10.3190465 2.56302324 -8.9375 0.125 C-5.9679355 -1.59926326 -3.21398691 -0.69401114 0 0 Z " fill="#070707" transform="translate(135,289)"/>
<path d="M0 0 C0.79470703 -0.01998047 1.58941406 -0.03996094 2.40820312 -0.06054688 C7.81995632 -0.05607065 10.89582285 0.86870019 15.1875 4.4375 C18.85087357 8.58289641 19.81129049 11.81118533 19.59375 17.1953125 C18.9375133 20.81723428 17.13403835 23.3352045 15.1875 26.4375 C14.79325756 30.48118027 14.79325756 30.48118027 17.25 33.25 C19.1875 36.4375 19.1875 36.4375 19 40.25 C18.1875 43.4375 18.1875 43.4375 17.1875 44.4375 C13.93359375 44.8671875 13.93359375 44.8671875 10.1875 44.4375 C8.11460656 42.44092812 6.79095595 40.90475304 5.25 38.5625 C4.85232422 38.00691406 4.45464844 37.45132813 4.04492188 36.87890625 C1.1875 32.796875 1.1875 32.796875 1.1875 30.4375 C0.5275 30.4375 -0.1325 30.4375 -0.8125 30.4375 C-0.78929687 31.28054687 -0.76609375 32.12359375 -0.7421875 32.9921875 C-0.71511719 34.63574219 -0.71511719 34.63574219 -0.6875 36.3125 C-0.66429687 37.40304688 -0.64109375 38.49359375 -0.6171875 39.6171875 C-0.8125 42.4375 -0.8125 42.4375 -2.8125 44.4375 C-8.08391937 44.99828929 -8.08391937 44.99828929 -10.47964478 43.15429688 C-12.7811794 40.18978327 -12.23807484 36.54069043 -12.2109375 32.9375 C-12.21380768 32.10541016 -12.21667786 31.27332031 -12.21963501 30.41601562 C-12.22167562 28.65754516 -12.21614593 26.89905199 -12.20361328 25.140625 C-12.18755902 22.44740087 -12.20346145 19.7556774 -12.22265625 17.0625 C-12.22067382 15.35416335 -12.21683014 13.64582764 -12.2109375 11.9375 C-12.21701019 11.13119141 -12.22308289 10.32488281 -12.2293396 9.49414062 C-12.15836518 3.85851457 -12.15836518 3.85851457 -10.40684509 1.72642517 C-7.41079422 -0.69568871 -3.69726354 -0.03250991 0 0 Z " fill="#060606" transform="translate(174.8125,157.5625)"/>
<path d="M0 0 C2.4375 0.75 2.4375 0.75 4.4375 2.75 C5.01650054 8.35803376 3.20379415 13.10373246 1.390625 18.30078125 C-2.11656017 28.80170627 -2.95275143 39.35736598 -2.9375 50.375 C-2.93588867 51.59832031 -2.93427734 52.82164062 -2.93261719 54.08203125 C-2.75133307 67.5752568 -0.09206939 79.55682514 4.703125 92.171875 C5.55298282 95.15541842 5.64078686 97.66176989 5.4375 100.75 C3.85635935 103.24653787 2.87418785 103.64922588 0 104.3125 C-2.5625 103.75 -2.5625 103.75 -4.5625 101.15234375 C-6.58300494 97.71511757 -7.88904679 94.53536165 -9.125 90.75 C-9.51816406 89.574375 -9.91132812 88.39875 -10.31640625 87.1875 C-13.84980573 75.08973053 -15.13305641 63.70928372 -15.0625 51.1875 C-15.06135193 50.00719208 -15.06135193 50.00719208 -15.06018066 48.80303955 C-15.01529057 35.97976106 -13.90420988 23.91863848 -9.5625 11.75 C-9.24603516 10.85958008 -8.92957031 9.96916016 -8.60351562 9.05175781 C-5.02155327 -0.48990764 -5.02155327 -0.48990764 0 0 Z " fill="#080808" transform="translate(65.5625,129.25)"/>
<path d="M0 0 C3.99374926 1.54859665 4.36263211 3.14806738 6.11010742 6.87670898 C7.64788 10.60780805 8.72756758 14.41344902 9.75 18.3125 C10.06807617 19.47072266 10.06807617 19.47072266 10.39257812 20.65234375 C15.93998149 41.19698587 15.10362555 66.7980986 9.0625 87.1875 C8.85931152 87.8882666 8.65612305 88.5890332 8.44677734 89.31103516 C4.78714242 101.55861336 4.78714242 101.55861336 0.0625 104.1875 C-3.30786311 103.94675978 -4.52548021 103.59951979 -6.9375 101.1875 C-7.43317772 96.3025602 -6.19066319 92.24803014 -4.625 87.6875 C-3.71807358 84.85765792 -2.82839775 82.02242464 -1.9375 79.1875 C-1.4425 77.61742187 -1.4425 77.61742187 -0.9375 76.015625 C4.46811217 55.5366712 2.34875966 31.48641101 -5.16796875 11.8359375 C-6.04478179 8.81827638 -6.14368233 6.31532983 -5.9375 3.1875 C-4.26262501 0.30299308 -3.33679333 0.21298681 0 0 Z " fill="#080808" transform="translate(295.9375,128.8125)"/>
<path d="M0 0 C2.48852056 1.41813071 4.54984351 2.96605571 6.375 5.1875 C6.15169287 8.83484979 5.99127165 10.57122835 3.375 13.1875 C-0.10997993 13.57471999 -2.00136806 13.58137281 -5 11.6875 C-8.59726165 9.63192192 -11.57483128 9.34643674 -15.625 10.1875 C-18.8116503 11.9573823 -18.8116503 11.9573823 -20.625 15.1875 C-21.42708418 19.93246115 -21.221275 24.05269166 -18.625 28.1875 C-14.61543756 30.86054163 -11.3392118 30.78107776 -6.625 30.1875 C-4.45467524 28.74759377 -4.45467524 28.74759377 -2.625 27.1875 C0.4375 26.75 0.4375 26.75 3.375 27.1875 C5.3125 28.875 5.3125 28.875 6.375 31.1875 C6.375 33.6875 6.375 33.6875 5.375 36.1875 C0.46810042 40.95809681 -4.24342774 42.48225567 -11 42.5625 C-17.8028727 42.432118 -21.33309189 41.41685404 -26.26953125 36.57421875 C-31.53545466 30.79579671 -34.26970226 25.63600416 -33.9609375 17.703125 C-32.92999037 9.98300928 -28.4696796 5.68603503 -22.74609375 0.75390625 C-16.73641931 -3.68417745 -6.52537047 -3.1837003 0 0 Z " fill="#090909" transform="translate(148.625,159.8125)"/>
<path d="M0 0 C0.1953125 2.01822917 0.390625 4.03645833 0.5859375 6.0546875 C0.86374749 8.22668245 0.86374749 8.22668245 3 10 C6.09926819 9.67801034 6.09926819 9.67801034 9 9 C9.66 6.03 10.32 3.06 11 0 C19.19241398 2.0481035 25.45454935 5.66974161 30 13 C30.99 15.97 31.98 18.94 33 22 C14.85 22 -3.3 22 -22 22 C-20.51428976 13.08573854 -16.11998869 7.96639186 -8.875 2.75 C-5.67811003 0.80406698 -3.7469975 0 0 0 Z " fill="#F6F6F6" transform="translate(276,85)"/>
<path d="M0 0 C0.66 2.97 1.32 5.94 2 9 C4.90073181 9.67801034 4.90073181 9.67801034 8 10 C10.29575603 7.70424397 10.32339599 6.99157475 10.625 3.875 C10.810625 1.956875 10.810625 1.956875 11 0 C19.01060201 0.75099394 24.57745894 6.18980643 29.5546875 12.03515625 C32.19468545 15.62412644 33 17.43419903 33 22 C14.85 22 -3.3 22 -22 22 C-19.01470103 13.04410308 -16.42080571 7.41004621 -8.3125 2.5625 C-2.88 0 -2.88 0 0 0 Z " fill="#F7F7F7" transform="translate(73,85)"/>
<path d="M0 0 C0.19916016 0.84884766 0.19916016 0.84884766 0.40234375 1.71484375 C0.57894531 2.44832031 0.75554687 3.18179687 0.9375 3.9375 C1.11152344 4.66839844 1.28554687 5.39929688 1.46484375 6.15234375 C1.83887569 7.99969898 1.83887569 7.99969898 3 9 C5.33944736 8.71269945 7.6739143 8.38063221 10 8 C10.33 5.36 10.66 2.72 11 0 C17.11000617 0.31333365 21.46651949 3.10606407 26 7 C29.83676675 11.54816725 31.82380021 15.11900105 33 21 C15.18 21 -2.64 21 -21 21 C-19.50099128 12.00594767 -15.06686325 7.3553573 -8 2 C-4.87438491 0.11974718 -3.86858058 0 0 0 Z " fill="#FAFAFA" transform="translate(73,288)"/>
<path d="M0 0 C4.00255838 2.11455915 6.36245253 3.77481854 8 8 C8.32592984 12.67166102 7.59286595 16.13764953 4.9375 20 C1.28599372 22.48613193 -1.57972243 23.45846323 -6 23 C-9.79560358 21.03190926 -11.6288722 19.5566917 -14 16 C-14.68343706 12.22311096 -14.85107095 8.52813111 -12.94921875 5.11328125 C-8.91807052 0.20217736 -6.24980874 -0.5208174 0 0 Z " fill="#F6F6F6" transform="translate(82,253)"/>
<path d="M0 0 C3.27634314 2.67456583 4.63024101 4.12149228 5.4375 8.22265625 C5.65604767 12.31359542 5.3293799 14.47299216 3.125 18 C-0.56748309 21.47527821 -3.59613475 21.41023124 -8.515625 21.33203125 C-11 21 -11 21 -14.0625 19.0625 C-16.59714012 15.05613335 -17.43318022 11.73166086 -17 7 C-13.21993481 -0.70013279 -7.98255161 -2.38624318 0 0 Z " fill="#F7F7F7" transform="translate(287,254)"/>
<path d="M0 0 C5.5 3 5.5 3 7 6 C7.53118173 9.79415519 7.85089348 13.46331178 5.953125 16.890625 C2.84487712 20.65709007 1.08299008 21.89170099 -3.75 22.375 C-7.06751516 22.34478584 -8.85116622 21.77284903 -11.4375 19.6875 C-14.4301569 16.54885984 -14.89293685 14.94572445 -15.375 10.6875 C-14.87765929 5.79698299 -13.42915508 4.42915508 -10 1 C-6.78918322 -0.60540839 -3.48289645 -0.48463309 0 0 Z " fill="#F8F8F8" transform="translate(285,51)"/>
<path d="M0 0 C3.07469523 1.70251719 5.40613254 3.81226508 7 7 C7.40710593 11.23390162 7.25575965 13.51588352 5.25 17.3125 C2.06757519 21.11372964 0.50776762 21.80454864 -4.375 22.4375 C-9.1853299 21.85694294 -10.61392593 20.38607407 -14 17 C-15.72869779 13.54260443 -15.48966895 9.78024432 -15 6 C-11.14949989 -0.16080017 -6.9481676 -1.07253594 0 0 Z " fill="#F8F8F8" transform="translate(83,51)"/>
<path d="M0 0 C3.375 -0.125 3.375 -0.125 7 0 C7.66 0.66 8.32 1.32 9 2 C8.44444444 6.55555556 8.44444444 6.55555556 7 8 C4.66702567 8.04092937 2.33294775 8.04241723 0 8 C0 5.36 0 2.72 0 0 Z " fill="#E7E7E7" transform="translate(174,169)"/>
<path d="M0 0 C0.99 0.33 1.98 0.66 3 1 C1.515 3.475 1.515 3.475 0 6 C-1.32 5.34 -2.64 4.68 -4 4 C-3.34 3.01 -2.68 2.02 -2 1 C-1.34 1.33 -0.68 1.66 0 2 C0 1.34 0 0.68 0 0 Z " fill="#ECECEC" transform="translate(225,167)"/>
</svg>
